<svg width="687" height="203" viewBox="0 0 687 203" fill="none" xmlns="http://www.w3.org/2000/svg">
<path d="M0 91.5C0 42.6228 39.6228 3 88.5 3V3C137.377 3 177 42.6228 177 91.5V180H88.5C39.6228 180 0 140.377 0 91.5V91.5Z" fill="url(#paint0_linear_6_2)"/>
<path d="M322.857 72.0195C321.612 60.2324 310.655 53.4258 296.295 53.4258C280.357 53.4258 269.981 61.7266 269.898 73.1816C269.981 85.7988 284.01 90.5303 293.141 92.7715L305.094 96.0918C317.96 99.4121 339.127 106.8 339.127 129.295C339.127 148.885 323.355 164.075 295.465 164.158C269.566 164.075 253.546 150.711 252.135 130.789H267.408C268.653 144.236 281.188 150.628 295.465 150.545C312.066 150.628 324.518 142.078 324.518 128.963C324.518 117.259 313.395 112.776 300.777 109.207L286.002 105.223C267.159 99.7441 255.372 90.1152 255.455 73.8457C255.372 53.5088 273.468 40.1445 296.793 40.1445C320.118 40.1445 336.886 53.7578 337.467 72.0195H322.857ZM365.344 107.879V162H351.067V41.8047H365.344V85.9648H366.506C370.74 76.668 378.791 70.6914 393.069 70.6914C411.496 70.6914 423.782 81.5654 423.782 104.725V162H409.504V105.721C409.504 91.5264 401.702 83.4746 388.752 83.4746C375.305 83.4746 365.344 92.2734 365.344 107.879ZM475.897 163.826C451.327 163.909 434.725 145.315 434.725 117.342C434.725 89.2021 451.327 70.6914 475.897 70.6914C500.385 70.6914 516.82 89.2021 516.737 117.342C516.82 145.315 500.385 163.909 475.897 163.826ZM449.003 117.342C449.086 135.354 457.553 151.209 475.897 151.209C494.076 151.209 502.46 135.354 502.46 117.342C502.46 99.4121 494.076 83.3086 475.897 83.3086C457.553 83.3086 449.086 99.4121 449.003 117.342ZM564.702 163.826C539.136 163.909 523.53 144.402 523.53 117.342C523.53 89.9492 539.883 70.6914 564.37 70.6914C583.545 70.6914 597.988 82.0635 600.23 99.0801H585.952C583.877 90.8623 576.738 83.3086 564.702 83.3086C548.599 83.3086 537.891 96.5898 537.808 116.844C537.891 137.679 548.35 151.043 564.702 151.043C575.327 151.043 583.462 145.315 585.952 135.438H600.23C597.988 151.541 584.707 163.909 564.702 163.826ZM610.177 162V41.8047H624.455V111.697H626.115L665.129 71.8535H682.726L644.709 110.452L685.548 162H667.453L634.001 119.5L624.455 128.382V162H610.177Z" fill="black"/>
<defs>
<linearGradient id="paint0_linear_6_2" x1="18.585" y1="35.45" x2="177" y2="180" gradientUnits="userSpaceOnUse">
<stop stop-color="#FFAF37"/>
<stop offset="0.0001" stop-color="#FF881B"/>
<stop offset="1" stop-color="#A716FF"/>
</linearGradient>
</defs>
</svg>
